<?xml version="1.0" encoding="UTF-8" standalone="no" ?>
<!DOCTYPE svg PUBLIC "-//W3C//DTD SVG 1.1//EN" "http://www.w3.org/Graphics/SVG/1.1/DTD/svg11.dtd">
<svg xmlns="http://www.w3.org/2000/svg" xmlns:xlink="http://www.w3.org/1999/xlink" version="1.1" width="327.8099462890625" height="116.03143999999999" xml:space="preserve">
<desc>Created with Fabric.js 1.6.0-rc.1</desc>
<defs></defs>
<g style="stroke: none; stroke-width: 1; stroke-dasharray: none; stroke-linecap: butt; stroke-linejoin: miter; stroke-miterlimit: 10; fill: none; fill-rule: nonzero; opacity: 1;" transform="translate(10 10) rotate(359.36) scale(0.19 0.17)" >
  <path d="M 186.508 126.728 l 62.513 -13.707 l 62.516 -13.704 l 62.513 -13.707 l 62.511 -13.704 l 31.269 -6.856 l -4.59 -20.928 c -5.015 -22.873 -27.831 -37.482 -50.706 -32.467 L 58.107 89.361 c -22.877 5.015 -37.489 27.831 -32.474 50.702 l 4.59 20.928 l 31.257 -6.854 l 62.512 -13.707 L 186.508 126.728 z" style="stroke: none; stroke-width: 1; stroke-dasharray: none; stroke-linecap: butt; stroke-linejoin: miter; stroke-miterlimit: 10; fill: #226c80; fill-rule: nonzero; opacity: 1;" transform=" matrix(1 0 0 1 0 0) " stroke-linecap="round" />
  <polygon points="61.48,154.14 30.22,160.99 39.36,202.67 476.96,106.73 467.83,65.05 " style="stroke: none; stroke-width: 1; stroke-dasharray: none; stroke-linecap: butt; stroke-linejoin: miter; stroke-miterlimit: 10; fill: #226c80; fill-rule: nonzero; opacity: 1;" transform="  matrix(1 0 0 1 0 0) "/>
  <polygon points="114.03,202.67 39.36,202.67 39.36,245.34 487.36,245.34 487.36,202.67 " style="stroke: none; stroke-width: 1; stroke-dasharray: none; stroke-linecap: butt; stroke-linejoin: miter; stroke-miterlimit: 10; fill: #226c80; fill-rule: nonzero; opacity: 1;" transform="  matrix(1 0 0 1 0 0) "/>
  <path d="M 391.35 245.336 h -63.996 h -63.998 h -64 h -63.996 H 71.357 H 39.359 V 458.76 c 0 23.416 19.158 42.574 42.576 42.574 h 362.848 c 23.416 0 42.576 -19.158 42.576 -42.574 V 288.003 v -42.667 H 455.35 H 391.35 L 391.35 245.336 z M 224.426 335.14 c 0 -8.768 7.107 -15.876 15.874 -15.876 c 3.286 0 6.338 0.999 8.869 2.708 l 32.16 18.568 l 0.815 0.506 l 32.217 18.6 c 7.57 4.351 10.18 14.015 5.832 21.581 c -1.488 2.585 -3.592 4.592 -6.024 5.94 l -32.855 18.972 l 0.015 0.026 l -33.091 19.105 c -7.57 4.383 -17.26 1.802 -21.645 -5.768 c -1.448 -2.505 -2.136 -5.239 -2.133 -7.939 h -0.033 v -38.211 L 224.426 335.14 L 224.426 335.14 z" style="stroke: none; stroke-width: 1; stroke-dasharray: none; stroke-linecap: butt; stroke-linejoin: miter; stroke-miterlimit: 10; fill: #226c80; fill-rule: nonzero; opacity: 1;" transform=" matrix(1 0 0 1 0 0) " stroke-linecap="round" />
  <path d="M 281.329 340.54 l -32.16 -18.568 c -2.531 -1.71 -5.583 -2.708 -8.869 -2.708 c -8.768 0 -15.874 7.11 -15.874 15.876 v 38.212 v 38.211 h 0.033 c -0.002 2.7 0.686 5.434 2.133 7.939 c 4.385 7.57 14.076 10.152 21.645 5.768 l 33.091 -19.105 l -0.015 -0.026 l 32.855 -18.972 c 2.431 -1.347 4.536 -3.355 6.024 -5.94 c 4.348 -7.567 1.738 -17.23 -5.832 -21.581 l -32.217 -18.6 L 281.329 340.54 z" style="stroke: none; stroke-width: 1; stroke-dasharray: none; stroke-linecap: butt; stroke-linejoin: miter; stroke-miterlimit: 10; fill: #35b0ac; fill-rule: nonzero; opacity: 1;" transform=" matrix(1 0 0 1 0 0) " stroke-linecap="round" />
  <path d="M 487.359 192.002 H 370.026 c -0.004 0 -0.009 0 -0.011 0 H 178.03 c -0.004 0 -0.009 0 -0.011 0 h -40.191 l 341.419 -74.853 c 2.763 -0.606 5.174 -2.285 6.698 -4.668 c 1.528 -2.382 2.044 -5.273 1.438 -8.037 l -9.132 -41.65 c -0.002 -0.009 -0.002 -0.018 -0.004 -0.027 c -0.002 -0.009 -0.006 -0.018 -0.009 -0.027 l -4.582 -20.902 C 468.343 17.596 446.451 0 421.604 0 c -3.803 0 -7.622 0.415 -11.355 1.233 L 55.821 78.941 c -28.675 6.287 -46.893 34.732 -40.607 63.407 l 13.478 61.478 V 458.76 c 0 29.357 23.885 53.241 53.243 53.241 h 362.848 c 29.359 0 53.243 -23.884 53.243 -53.241 V 202.67 C 498.026 196.778 493.249 192.002 487.359 192.002 z M 417.104 234.669 l 21.333 -21.332 h 33.828 l -21.333 21.332 H 417.104 z M 353.107 234.669 l 21.331 -21.332 h 33.825 l -21.333 21.332 H 353.107 z M 289.109 234.669 l 21.333 -21.332 h 33.823 l -21.331 21.332 H 289.109 z M 225.108 234.669 l 21.333 -21.332 h 33.828 l -21.333 21.332 H 225.108 z M 161.112 234.669 l 21.331 -21.332 h 33.825 l -21.333 21.332 H 161.112 z M 97.114 234.669 l 21.333 -21.332 h 33.823 l -21.331 21.332 H 97.114 z M 50.027 234.669 v -21.332 h 38.247 l -21.333 21.332 H 50.027 z M 59.448 165.505 l 25.406 16.268 l -37.358 8.19 l -4.569 -20.837 L 59.448 165.505 z M 121.964 151.8 l 25.403 16.269 l -33.042 7.243 l -25.403 -16.268 L 121.964 151.8 z M 246.989 124.389 l 25.406 16.269 l -33.045 7.244 l -25.403 -16.268 L 246.989 124.389 z M 372.017 96.978 l 25.406 16.268 l -33.042 7.244 l -25.406 -16.268 L 372.017 96.978 z M 434.528 83.273 l 25.408 16.268 l -33.04 7.244 L 401.49 90.516 L 434.528 83.273 z M 309.503 110.683 l 25.406 16.268 l -33.042 7.244 l -25.405 -16.269 L 309.503 110.683 z M 184.476 138.095 l 25.403 16.268 l -33.04 7.244 l -25.406 -16.269 L 184.476 138.095 z M 60.39 99.781 l 354.428 -77.708 c 2.234 -0.49 4.517 -0.738 6.786 -0.738 c 14.901 0 28.029 10.544 31.213 25.072 l 2.304 10.51 l -20.843 4.57 c -0.002 0 -0.004 0.001 -0.006 0.002 l -62.503 13.702 c -0.004 0.001 -0.009 0.002 -0.013 0.003 l -125.006 27.406 c -0.009 0.002 -0.019 0.004 -0.027 0.006 l -124.986 27.403 c -0.019 0.004 -0.037 0.009 -0.057 0.013 l -62.479 13.698 c -0.002 0.001 -0.004 0.001 -0.009 0.002 l -20.835 4.568 l -2.304 -10.508 C 32.288 120.594 43.206 103.549 60.39 99.781 z M 444.783 490.665 H 81.935 c -13.853 0 -25.667 -8.876 -30.067 -21.238 l 42.604 0.003 l 0 0 c 5.892 0 10.667 -4.776 10.667 -10.667 c 0 -5.891 -4.776 -10.667 -10.665 -10.667 l -44.447 -0.003 V 256.004 h 426.665 v 21.332 h -68.657 c -5.892 0 -10.667 4.776 -10.667 10.667 s 4.776 10.667 10.667 10.667 h 68.657 v 160.088 C 476.691 476.353 462.376 490.665 444.783 490.665 z" style="stroke: none; stroke-width: 1; stroke-dasharray: none; stroke-linecap: butt; stroke-linejoin: miter; stroke-miterlimit: 10; fill: #35b0ac; fill-rule: nonzero; opacity: 1;" transform=" matrix(1 0 0 1 0 0) " stroke-linecap="round" />
  <path d="M 319.694 350.407 l -31.967 -18.455 c -0.356 -0.23 -0.717 -0.45 -1.065 -0.651 l -31.878 -18.404 c -4.313 -2.816 -9.312 -4.302 -14.486 -4.302 c -14.639 0 -26.546 11.908 -26.546 26.544 v 76.423 c 0 0.382 0.021 0.76 0.061 1.132 c 0.183 4.262 1.401 8.44 3.546 12.151 c 4.724 8.158 13.518 13.227 22.954 13.227 c 4.646 0 9.234 -1.235 13.257 -3.564 l 33.091 -19.105 c 0.242 -0.14 0.475 -0.287 0.702 -0.443 l 32.071 -18.515 c 4.162 -2.331 7.62 -5.754 10.001 -9.9 c 3.526 -6.131 4.45 -13.267 2.606 -20.095 C 330.2 359.622 325.808 353.921 319.694 350.407 z M 310.94 375.915 c -0.473 0.824 -1.128 1.471 -1.944 1.924 c -0.052 0.029 -0.107 0.059 -0.158 0.089 l -32.857 18.969 c -0.242 0.14 -0.477 0.288 -0.704 0.443 l -32.385 18.699 c -0.802 0.464 -1.668 0.699 -2.577 0.699 c -1.875 0 -3.552 -0.964 -4.488 -2.578 c -0.465 -0.805 -0.702 -1.679 -0.702 -2.596 c 0 -0.293 -0.013 -0.585 -0.035 -0.873 v -75.55 c 0 -2.872 2.337 -5.209 5.211 -5.209 c 1.316 0 2.302 0.478 2.896 0.879 c 0.208 0.141 0.421 0.274 0.64 0.399 l 32.194 18.587 c 0.079 0.045 0.151 0.095 0.227 0.144 c 0.181 0.119 0.367 0.234 0.555 0.342 l 32.234 18.61 c 1.607 0.924 2.196 2.35 2.402 3.118 C 311.654 372.78 311.862 374.307 310.94 375.915 z" style="stroke: none; stroke-width: 1; stroke-dasharray: none; stroke-linecap: butt; stroke-linejoin: miter; stroke-miterlimit: 10; fill: #35b0ac; fill-rule: nonzero; opacity: 1;" transform=" matrix(1 0 0 1 0 0) " stroke-linecap="round" />
  <path d="M 377.39 277.34 h -0.254 c -5.892 0 -10.667 4.776 -10.667 10.667 c 0 5.892 4.776 10.667 10.667 10.667 h 0.254 c 5.889 0 10.667 -4.776 10.667 -10.667 C 388.058 282.115 383.281 277.34 377.39 277.34 z" style="stroke: none; stroke-width: 1; stroke-dasharray: none; stroke-linecap: butt; stroke-linejoin: miter; stroke-miterlimit: 10; fill: #35b0ac; fill-rule: nonzero; opacity: 1;" transform=" matrix(1 0 0 1 0 0) " stroke-linecap="round" />
  <path d="M 125.37 448.101 h -0.252 c -5.892 0 -10.667 4.776 -10.667 10.667 c 0 5.892 4.776 10.667 10.667 10.667 h 0.252 c 5.892 0 10.667 -4.776 10.667 -10.667 C 136.037 452.877 131.263 448.101 125.37 448.101 z" style="stroke: none; stroke-width: 1; stroke-dasharray: none; stroke-linecap: butt; stroke-linejoin: miter; stroke-miterlimit: 10; fill: #35b0ac; fill-rule: nonzero; opacity: 1;" transform=" matrix(1 0 0 1 0 0) " stroke-linecap="round" />
</g>
  <g transform="translate(217.65 63.09) scale(1 1.67)">
   <text font-family="Florencesans Shaded" font-size="40" font-weight="normal" style="stroke: none; stroke-width: 1; stroke-dasharray: none; stroke-linecap: butt; stroke-linejoin: miter; stroke-miterlimit: 10; fill: #35b0ac; fill-rule: nonzero; opacity: 1;" ><tspan x="-100.66" y="8.98" style="stroke: none; stroke-width: 0; stroke-dasharray: none; stroke-linecap: butt; stroke-linejoin: miter; stroke-miterlimit: 4; fill: #35b0ac; fill-rule: ; opacity: 1;">S</tspan><tspan x="-70.34" y="8.98" style="stroke: none; stroke-width: 0; stroke-dasharray: none; stroke-linecap: butt; stroke-linejoin: miter; stroke-miterlimit: 4; fill: #35b0ac; fill-rule: ; opacity: 1;">t</tspan><tspan x="-52.3" y="8.98" style="stroke: none; stroke-width: 0; stroke-dasharray: none; stroke-linecap: butt; stroke-linejoin: miter; stroke-miterlimit: 4; fill: #35b0ac; fill-rule: ; opacity: 1;">r</tspan><tspan x="-33.78" y="8.98" style="stroke: none; stroke-width: 0; stroke-dasharray: none; stroke-linecap: butt; stroke-linejoin: miter; stroke-miterlimit: 4; fill: #35b0ac; fill-rule: ; opacity: 1;">e</tspan><tspan x="-4.54" y="8.98" style="stroke: none; stroke-width: 0; stroke-dasharray: none; stroke-linecap: butt; stroke-linejoin: miter; stroke-miterlimit: 4; fill: #35b0ac; fill-rule: ; opacity: 1;">a</tspan><tspan x="25.58" y="8.98" style="stroke: none; stroke-width: 0; stroke-dasharray: none; stroke-linecap: butt; stroke-linejoin: miter; stroke-miterlimit: 4; fill: #35b0ac; fill-rule: ; opacity: 1;">m</tspan><tspan x="63.94" y="8.98" style="stroke: none; stroke-width: 0; stroke-dasharray: none; stroke-linecap: butt; stroke-linejoin: miter; stroke-miterlimit: 4; fill: #35b0ac; fill-rule: ; opacity: 1;">i</tspan><tspan x="76.06" y="8.98" style="stroke: none; stroke-width: 0; stroke-dasharray: none; stroke-linecap: butt; stroke-linejoin: miter; stroke-miterlimit: 4; fill: #35b0ac; fill-rule: ; opacity: 1;">x</tspan></text>
 </g>
</svg>